{"title":"The Last Tycoon 2012 BRRip 720p x264 AAC - PRiSTiNE [P2PDL]","uid":8238012,"size":737088546,"categoryP":"video","categoryS":"hd___movies","magnet":"?xt=urn:btih:a61958d4982b40c465b7410ee123fda5a02a4d37&amp;dn=The+Last+Tycoon+2012+BRRip+720p+x264+AAC+-+PRiSTiNE+%5BP2PDL%5D&amp;tr=udp%3A%2F%2Ftracker.openbittorrent.com%3A80&amp;tr=udp%3A%2F%2Fopen.demonii.com%3A1337&amp;tr=udp%3A%2F%2Ftracker.coppersurfer.tk%3A6969&amp;tr=udp%3A%2F%2Fexodus.desync.com%3A6969","seeders":10,"leechers":2,"uploader":"ValidusVyto","files":-1,"time":1362891220,"description":"_________________________  Visit us at _________________________\n  &lt;a href=&quot;\nhttp://p2pdl.com&quot; rel=&quot;nofollow&quot; target=&quot;_NEW&quot;&gt;\nhttp://p2pdl.com&lt;/a&gt;  ____________________________ &lt;a href=&quot; http://p2pdl.com&quot; rel=&quot;nofollow&quot; target=&quot;_NEW&quot;&gt; http://p2pdl.com&lt;/a&gt;\n\n\nThe Last Tycoon 2012 BRRip 720p x264 AAC - PRiSTiNE\n\n\nOriginal Title: Da Shang Hai\nGenre: Adventure | Drama | Romance\nPlot: Set in Shanghais Gangster era of the early 1900s, THE LAST TYCOON tells the tale of, a young man\nwho is set up by the chief of police and must leave the life he knows and the woman he loves, to start\nover again. Making his way up the ladder of Shanghais criminal underworld to become on the most powerful\nmob bosses in Shanghais history.\nDirector: Jing Wong\nStars: Yun-Fat Chow, Xiaoming Huang, Sammo Hung Kam-Bo.\nRated: N/a.\n\n\nIMDb: &lt;a href=&quot;\nhttp://www.imdb.com/title/tt2458314/&quot; rel=&quot;nofollow&quot; target=&quot;_NEW&quot;&gt;\nhttp://www.imdb.com/title/tt2458314/&lt;/a&gt;\n\nTrailer:\n\n\nFormat                         : MPEG-4\nFile size                      : 696 MiB\nDuration                       : 1h 58mn\nOverall bit rate               : 820 Kbps\nVideo Format                   : AVC\nVideo Bit rate                 : 733 Kbps\nWidth                          : 1 280 pixels\nHeight                         : 532 pixels\nDisplay aspect ratio           : 2.40:1\nFrame rate mode                : Constant\nFrame rate                     : 24.000 fps\nStream size                    : 623 MiB (89%)\nWriting library                : x264 core 129 r2245\nAudio Format                   : AAC\nDuration                       : 1h 58mn\nAudio Bit rate                 : 83.7 Kbps\nChannel(s)                     : 2 channels\nChannel positions              : Front: L R\nSampling rate                  : 48.0 KHz\nStream size                    : 71.1 MiB (10%)\nLanguage                       : Chinese\nSubtitle                       : Yes(English)\nSource                         : BluRay.720p.DTS.2Audio.x264-CHD(Thanks)\n\nScreenshots:\n &lt;a href=&quot;\nhttp://cdn.piczend.com/images/GQDJAXYB/1362885843_tinybaythelasttycoon201.jpg&quot; rel=&quot;nofollow&quot; target=&quot;_NEW&quot;&gt;\nhttp://cdn.piczend.com/images/GQDJAXYB/1362885843_tinybaythelasttycoon201.jpg&lt;/a&gt;\n\n\n----------------------------------------------------------------------------------------------------\n\n\nEncoded using revolutionary 10bit encoding, which enables us to provide you more crispier and\nsharper images at small sizes, just make sure you follow our instructions without a fault.\nRecommend to you to use latest version of VLC player. Install K-Lite Codec Pack or shark007 codecs\nin case of any kind of problem in playback (For non-VLC Media Player users). Alternatively, install\nCore AVC codecs, the fastest decoder that there is coupled with Community Center Codec Pack and play\non Windows Media Player Classic.\n\nEncoder Notes: Looking For Early Access To Anything You Can Provide DVDScr, R5, DVDR, BluRay, Direct\nAudio, Early Music Releases, Seedboxes, Dedicated Servers anything u can provide, Advance / Promo CDs/\nDVDs. If You Got anything to offer contact me at &quot;&lt;a class=&quot;__cf_email__&quot; href=&quot;/cdn-cgi/l/email-protection&quot; data-cfemail=&quot;4f3f3d280f273a3c27612c2022&quot;&gt;[email&amp;#160;protected]&lt;/a&gt;&lt;script cf-hash='f9e31' type=&quot;text/javascript&quot;&gt;\n/* &lt;![CDATA[ */!function(){try{var t=&quot;currentScript&quot;in document?document.currentScript:function(){for(var t=document.getElementsByTagName(&quot;script&quot;),e=t.length;e--;)if(t[e].getAttribute(&quot;cf-hash&quot;))return t[e]}();if(t&amp;&amp;t.previousSibling){var e,r,n,i,c=t.previousSibling,a=c.getAttribute(&quot;data-cfemail&quot;);if(a){for(e=&quot;&quot;,r=parseInt(a.substr(0,2),16),n=2;a.length-n;n+=2)i=parseInt(a.substr(n,2),16)^r,e+=String.fromCharCode(i);e=document.createTextNode(e),c.parentNode.replaceChild(e,c)}}}catch(u){}}();/* ]]&gt; */&lt;/script&gt;&quot;.","torrent":{"xt":"urn:btih:a61958d4982b40c465b7410ee123fda5a02a4d37","amp;dn":"The+Last+Tycoon+2012+BRRip+720p+x264+AAC+-+PRiSTiNE+%5BP2PDL%5D","amp;tr":["udp%3A%2F%2Ftracker.openbittorrent.com%3A80","udp%3A%2F%2Fopen.demonii.com%3A1337","udp%3A%2F%2Ftracker.coppersurfer.tk%3A6969","udp%3A%2F%2Fexodus.desync.com%3A6969"],"infoHash":"a61958d4982b40c465b7410ee123fda5a02a4d37","infoHashBuffer":{"type":"Buffer","data":[166,25,88,212,152,43,64,196,101,183,65,14,225,35,253,165,160,42,77,55]},"announce":[],"urlList":[]}}